<?xml version="1.0" standalone="no"?>
<!DOCTYPE svg PUBLIC "-//W3C//DTD SVG 20010904//EN"
 "http://www.w3.org/TR/2001/REC-SVG-20010904/DTD/svg10.dtd">
<svg version="1.0" xmlns="http://www.w3.org/2000/svg"
 width="260.000000pt" height="260.000000pt" viewBox="0 0 260.000000 260.000000"
 preserveAspectRatio="xMidYMid meet">
<metadata>
Created by potrace 1.14, written by Peter Selinger 2001-2017
</metadata>
<g transform="translate(0.000000,260.000000) scale(0.100000,-0.100000)"
fill="#000000" stroke="none">
<path d="M1089 2454 c-325 -58 -599 -239 -780 -512 -70 -106 -136 -257 -159
-363 -11 -48 -10 -60 4 -88 30 -57 53 -61 364 -61 l278 0 -10 -71 c-35 -253
141 -504 396 -564 157 -37 328 7 450 114 l46 41 266 -2 266 -3 -43 -87 c-214
-426 -705 -634 -1162 -491 -247 78 -463 260 -577 488 -50 99 -55 93 76 97 104
3 117 5 140 27 35 33 42 73 19 119 -26 53 -58 61 -253 61 -189 0 -225 -8 -253
-57 -18 -31 -19 -39 -7 -90 52 -241 237 -519 441 -665 220 -157 438 -227 704
-227 207 0 357 35 536 125 292 146 524 433 604 744 19 74 14 103 -22 137 l-26
24 -300 0 c-263 0 -298 2 -293 15 14 37 18 148 7 211 -34 193 -179 356 -365
409 -77 23 -205 23 -281 1 -79 -24 -123 -47 -189 -101 l-56 -45 -261 0 -260 0
6 23 c14 46 88 173 136 233 361 454 1043 494 1450 85 97 -98 186 -230 213
-318 7 -23 6 -23 -82 -23 -102 0 -144 -11 -166 -45 -18 -28 -21 -87 -6 -116
23 -42 59 -49 244 -49 96 0 186 4 200 10 39 14 68 67 62 111 -10 63 -57 191
-104 283 -142 277 -400 494 -697 585 -160 50 -395 65 -556 35z m337 -885 c198
-95 234 -362 69 -507 -82 -72 -196 -93 -306 -57 -72 24 -158 109 -182 179 -57
168 31 348 197 402 59 20 163 12 222 -17z"/>
<path d="M1224 1451 c-155 -70 -124 -295 44 -327 78 -15 168 43 192 123 24 80
-13 162 -90 201 -54 27 -92 28 -146 3z"/>
</g>
</svg>
